<svg xmlns="http://www.w3.org/2000/svg" viewBox="0 0 500 500" width="500" height="500" style="width: 100%; height: 100%; transform: translate3d(0,0,0);" preserveAspectRatio="xMidYMid meet"><defs><clipPath id="__lottie_element_2"><rect width="500" height="500" x="0" y="0"></rect></clipPath><clipPath id="__lottie_element_7"><path fill="#ffffff" clip-rule="nonzero" d=" M420.260986328125,168.30499267578125 C420.260986328125,168.30499267578125 206.94400024414062,171.13400268554688 206.94400024414062,171.13400268554688 C206.94400024414062,171.13400268554688 257.12701416015625,417.8059997558594 257.12701416015625,417.8059997558594 C257.12701416015625,417.8059997558594 420.260986328125,417.2869873046875 420.260986328125,417.2869873046875 C420.260986328125,417.2869873046875 420.260986328125,168.30499267578125 420.260986328125,168.30499267578125" fill-opacity="1"></path></clipPath></defs><g clip-path="url(#__lottie_element_2)"><g clip-path="url(#__lottie_element_7)" style="display: block;" transform="matrix(0.7071194648742676,-0.707391083240509,0.707391083240509,0.7071194648742676,-184.7396697998047,218.3153533935547)" opacity="1"><g opacity="1" transform="matrix(1,0,0,1,250,306.27801513671875)"><path fill="rgb(205,196,211)" fill-opacity="1" d=" M-120.8489990234375,-88.72200012207031 C-134.23399353027344,-88.72200012207031 -145.00999450683594,-77.94499969482422 -145.00999450683594,-64.55999755859375 C-145.00999450683594,-64.55999755859375 -145.00999450683594,-43.56100082397461 -145.00999450683594,-43.56100082397461 C-145.00999450683594,-32.250999450683594 -137.0050048828125,-30.025999069213867 -132.843994140625,-28.6299991607666 C-126.72899627685547,-26.0310001373291 -121.5009994506836,-21.49799919128418 -118.06900024414062,-15.553999900817871 C-112.51200103759766,-5.928999900817871 -112.51200103759766,5.928999900817871 -118.06900024414062,15.553999900817871 C-121.5250015258789,21.541000366210938 -126.80400085449219,26.097000122070312 -132.9759979248047,28.687000274658203 C-137.00599670410156,30.099000930786133 -145.00999450683594,33.16400146484375 -145.00999450683594,44.92900085449219 C-145.00999450683594,44.92900085449219 -145.00999450683594,64.55999755859375 -145.00999450683594,64.55999755859375 C-145.00999450683594,77.94499969482422 -134.23399353027344,88.72200012207031 -120.8489990234375,88.72200012207031 C-120.8489990234375,88.72200012207031 120.8489990234375,88.72200012207031 120.8489990234375,88.72200012207031 C134.23399353027344,88.72200012207031 145.00999450683594,77.94499969482422 145.00999450683594,64.55999755859375 C145.00999450683594,64.55999755859375 145.00999450683594,44.92900085449219 145.00999450683594,44.92900085449219 C145.00999450683594,33.16400146484375 137.00599670410156,30.099000930786133 132.9759979248047,28.687000274658203 C126.80400085449219,26.097999572753906 121.5250015258789,21.541000366210938 118.06900024414062,15.553999900817871 C112.51200103759766,5.928999900817871 112.51200103759766,-5.928999900817871 118.06900024414062,-15.553999900817871 C121.5009994506836,-21.49799919128418 126.72899627685547,-26.0310001373291 132.843994140625,-28.6299991607666 C137.0050048828125,-30.025999069213867 145.00999450683594,-32.250999450683594 145.00999450683594,-43.56100082397461 C145.00999450683594,-43.56100082397461 145.00999450683594,-64.55999755859375 145.00999450683594,-64.55999755859375 C145.00999450683594,-77.94499969482422 134.23399353027344,-88.72200012207031 120.8489990234375,-88.72200012207031 C120.8489990234375,-88.72200012207031 -120.8489990234375,-88.72200012207031 -120.8489990234375,-88.72200012207031z"></path></g><g opacity="1" transform="matrix(1,0,0,1,250,305.85101318359375)"><path fill="rgb(145,98,228)" fill-opacity="1" d=" M-73.68000030517578,60.8380012512207 C-73.68000030517578,60.8380012512207 73.68000030517578,60.8380012512207 73.68000030517578,60.8380012512207 C87.06500244140625,60.8380012512207 97.84100341796875,50.0620002746582 97.84100341796875,36.676998138427734 C97.84100341796875,36.676998138427734 97.84100341796875,-36.676998138427734 97.84100341796875,-36.676998138427734 C97.84100341796875,-50.0620002746582 87.06500244140625,-60.8380012512207 73.68000030517578,-60.8380012512207 C73.68000030517578,-60.8380012512207 -73.68000030517578,-60.8380012512207 -73.68000030517578,-60.8380012512207 C-87.06500244140625,-60.8380012512207 -97.84100341796875,-50.0620002746582 -97.84100341796875,-36.676998138427734 C-97.84100341796875,-36.676998138427734 -97.84100341796875,36.676998138427734 -97.84100341796875,36.676998138427734 C-97.84100341796875,50.0620002746582 -87.06500244140625,60.8380012512207 -73.68000030517578,60.8380012512207z"></path></g><g opacity="1" transform="matrix(1,0,0,1,241.03900146484375,303.92401123046875)"><path fill="rgb(255,255,255)" fill-opacity="1" d=" M24.01099967956543,35.8650016784668 C17.445999145507812,40.683998107910156 8.324000358581543,29.415000915527344 0.1809999942779541,29.454999923706055 C-7.961999893188477,29.492000579833984 -16.972999572753906,40.85300064086914 -23.584999084472656,36.0989990234375 C-30.19700050354004,31.344999313354492 -22.297000885009766,19.18600082397461 -24.851999282836914,11.454000473022461 C-27.406999588012695,3.7209999561309814 -40.99399948120117,-1.3389999866485596 -38.51599884033203,-9.095999717712402 C-36.03799819946289,-16.85300064086914 -22.034000396728516,-13.097999572753906 -15.468999862670898,-17.91699981689453 C-8.904000282287598,-22.736000061035156 -8.289999961853027,-37.22100067138672 -0.1469999998807907,-37.26100158691406 C7.995999813079834,-37.29800033569336 8.751999855041504,-22.82200050354004 15.36400032043457,-18.06800079345703 C21.97599983215332,-13.314000129699707 35.94200134277344,-17.207000732421875 38.49700164794922,-9.473999977111816 C41.05099868774414,-1.7419999837875366 27.513999938964844,3.4519999027252197 25.035999298095703,11.208999633789062 C22.558000564575195,18.965999603271484 30.576000213623047,31.04599952697754 24.01099967956543,35.8650016784668 C24.01099967956543,35.8650016784668 24.01099967956543,35.8650016784668 24.01099967956543,35.8650016784668z"></path></g></g><g style="display: block;" transform="matrix(1.0002100467681885,-0.00001745695772115141,0.00001745695772115141,1.0002100467681885,-0.0578460693359375,-0.059967041015625)" opacity="1"><g opacity="1" transform="matrix(1,0,0,1,250,306.27801513671875)"><path fill="rgb(228,228,228)" fill-opacity="1" d=" M-120.8489990234375,-88.72200012207031 C-134.23399353027344,-88.72200012207031 -145.00999450683594,-77.94499969482422 -145.00999450683594,-64.55999755859375 C-145.00999450683594,-64.55999755859375 -145.00999450683594,-43.56100082397461 -145.00999450683594,-43.56100082397461 C-145.00999450683594,-32.250999450683594 -137.0050048828125,-30.025999069213867 -132.843994140625,-28.6299991607666 C-126.72899627685547,-26.0310001373291 -121.5009994506836,-21.49799919128418 -118.06900024414062,-15.553999900817871 C-112.51200103759766,-5.928999900817871 -112.51200103759766,5.928999900817871 -118.06900024414062,15.553999900817871 C-121.5250015258789,21.541000366210938 -126.80400085449219,26.097000122070312 -132.9759979248047,28.687000274658203 C-137.00599670410156,30.099000930786133 -145.00999450683594,33.16400146484375 -145.00999450683594,44.92900085449219 C-145.00999450683594,44.92900085449219 -145.00999450683594,64.55999755859375 -145.00999450683594,64.55999755859375 C-145.00999450683594,77.94499969482422 -134.23399353027344,88.72200012207031 -120.8489990234375,88.72200012207031 C-120.8489990234375,88.72200012207031 120.8489990234375,88.72200012207031 120.8489990234375,88.72200012207031 C134.23399353027344,88.72200012207031 145.00999450683594,77.94499969482422 145.00999450683594,64.55999755859375 C145.00999450683594,64.55999755859375 145.00999450683594,44.92900085449219 145.00999450683594,44.92900085449219 C145.00999450683594,33.16400146484375 137.00599670410156,30.099000930786133 132.9759979248047,28.687000274658203 C126.80400085449219,26.097999572753906 121.5250015258789,21.541000366210938 118.06900024414062,15.553999900817871 C112.51200103759766,5.928999900817871 112.51200103759766,-5.928999900817871 118.06900024414062,-15.553999900817871 C121.5009994506836,-21.49799919128418 126.72899627685547,-26.0310001373291 132.843994140625,-28.6299991607666 C137.0050048828125,-30.025999069213867 145.00999450683594,-32.250999450683594 145.00999450683594,-43.56100082397461 C145.00999450683594,-43.56100082397461 145.00999450683594,-64.55999755859375 145.00999450683594,-64.55999755859375 C145.00999450683594,-77.94499969482422 134.23399353027344,-88.72200012207031 120.8489990234375,-88.72200012207031 C120.8489990234375,-88.72200012207031 -120.8489990234375,-88.72200012207031 -120.8489990234375,-88.72200012207031z"></path></g><g opacity="1" transform="matrix(1,0,0,1,250,305.85101318359375)"><path fill="rgb(145,98,228)" fill-opacity="1" d=" M-73.68000030517578,60.8380012512207 C-73.68000030517578,60.8380012512207 73.68000030517578,60.8380012512207 73.68000030517578,60.8380012512207 C87.06500244140625,60.8380012512207 97.84100341796875,50.0620002746582 97.84100341796875,36.676998138427734 C97.84100341796875,36.676998138427734 97.84100341796875,-36.676998138427734 97.84100341796875,-36.676998138427734 C97.84100341796875,-50.0620002746582 87.06500244140625,-60.8380012512207 73.68000030517578,-60.8380012512207 C73.68000030517578,-60.8380012512207 -73.68000030517578,-60.8380012512207 -73.68000030517578,-60.8380012512207 C-87.06500244140625,-60.8380012512207 -97.84100341796875,-50.0620002746582 -97.84100341796875,-36.676998138427734 C-97.84100341796875,-36.676998138427734 -97.84100341796875,36.676998138427734 -97.84100341796875,36.676998138427734 C-97.84100341796875,50.0620002746582 -87.06500244140625,60.8380012512207 -73.68000030517578,60.8380012512207z"></path></g><g opacity="1" transform="matrix(1,0,0,1,322.52801513671875,306.27801513671875)"><path fill="rgb(255,255,255)" fill-opacity="1" d=" M-7.241000175476074,-88.72200012207031 C-7.241000175476074,-88.72200012207031 -7.241000175476074,-80.02899932861328 -7.241000175476074,-80.02899932861328 C-7.23799991607666,-73.36199951171875 -6.664999961853027,-67.96099853515625 0.0020000000949949026,-67.95800018310547 C6.669000148773193,-67.96099853515625 7.23799991607666,-73.36199951171875 7.241000175476074,-80.02899932861328 C7.241000175476074,-80.02899932861328 7.241000175476074,-88.72200012207031 7.241000175476074,-88.72200012207031 C7.241000175476074,-88.72200012207031 -7.241000175476074,-88.72200012207031 -7.241000175476074,-88.72200012207031z M0.0020000000949949026,-45.198001861572266 C-6.664999961853027,-45.19499969482422 -7.23799991607666,-39.790000915527344 -7.241000175476074,-33.12300109863281 C-7.241000175476074,-33.12300109863281 -7.241000175476074,-23.452999114990234 -7.241000175476074,-23.452999114990234 C-7.23799991607666,-16.785999298095703 -6.664999961853027,-11.380999565124512 0.0020000000949949026,-11.378000259399414 C6.669000148773193,-11.380999565124512 7.23799991607666,-16.785999298095703 7.241000175476074,-23.452999114990234 C7.241000175476074,-23.452999114990234 7.241000175476074,-33.12300109863281 7.241000175476074,-33.12300109863281 C7.23799991607666,-39.790000915527344 6.669000148773193,-45.19499969482422 0.0020000000949949026,-45.198001861572266z M0.0020000000949949026,11.376999855041504 C-6.664999961853027,11.380000114440918 -7.23799991607666,16.785999298095703 -7.241000175476074,23.452999114990234 C-7.241000175476074,23.452999114990234 -7.241000175476074,33.12300109863281 -7.241000175476074,33.12300109863281 C-7.23799991607666,39.790000915527344 -6.664999961853027,45.19499969482422 0.0020000000949949026,45.198001861572266 C6.669000148773193,45.19599914550781 7.23799991607666,39.790000915527344 7.241000175476074,33.12300109863281 C7.241000175476074,33.12300109863281 7.241000175476074,23.452999114990234 7.241000175476074,23.452999114990234 C7.23799991607666,16.785999298095703 6.669000148773193,11.380000114440918 0.0020000000949949026,11.376999855041504z M0.0020000000949949026,67.95800018310547 C-6.664999961853027,67.95999908447266 -7.23799991607666,73.36199951171875 -7.241000175476074,80.02899932861328 C-7.241000175476074,80.02899932861328 -7.241000175476074,88.72200012207031 -7.241000175476074,88.72200012207031 C-7.241000175476074,88.72200012207031 7.241000175476074,88.72200012207031 7.241000175476074,88.72200012207031 C7.241000175476074,88.72200012207031 7.241000175476074,80.02899932861328 7.241000175476074,80.02899932861328 C7.23799991607666,73.36199951171875 6.669000148773193,67.96099853515625 0.0020000000949949026,67.95800018310547z"></path></g><g opacity="1" transform="matrix(1,0,0,1,241.03900146484375,303.92401123046875)"><path fill="rgb(255,255,255)" fill-opacity="1" d=" M24.01099967956543,35.8650016784668 C17.445999145507812,40.683998107910156 8.324000358581543,29.415000915527344 0.1809999942779541,29.454999923706055 C-7.961999893188477,29.492000579833984 -16.972999572753906,40.85300064086914 -23.584999084472656,36.0989990234375 C-30.19700050354004,31.344999313354492 -22.297000885009766,19.18600082397461 -24.851999282836914,11.454000473022461 C-27.406999588012695,3.7209999561309814 -40.99399948120117,-1.3389999866485596 -38.51599884033203,-9.095999717712402 C-36.03799819946289,-16.85300064086914 -22.034000396728516,-13.097999572753906 -15.468999862670898,-17.91699981689453 C-8.904000282287598,-22.736000061035156 -8.289999961853027,-37.22100067138672 -0.1469999998807907,-37.26100158691406 C7.995999813079834,-37.29800033569336 8.751999855041504,-22.82200050354004 15.36400032043457,-18.06800079345703 C21.97599983215332,-13.314000129699707 35.94200134277344,-17.207000732421875 38.49700164794922,-9.473999977111816 C41.05099868774414,-1.7419999837875366 27.513999938964844,3.4519999027252197 25.035999298095703,11.208999633789062 C22.558000564575195,18.965999603271484 30.576000213623047,31.04599952697754 24.01099967956543,35.8650016784668 C24.01099967956543,35.8650016784668 24.01099967956543,35.8650016784668 24.01099967956543,35.8650016784668z"></path></g></g></g></svg>